<svg width="25" height="25" viewBox="0 0 25 25" fill="none" xmlns="http://www.w3.org/2000/svg">
<g clip-path="url(#clip0_431_90)">
<path d="M10.0694 11.6839C11.4497 11.0242 12.1701 10.026 12.1701 8.47214C12.1701 5.4079 9.88715 4.66138 7.2526 4.66138H0V20.0433H7.4566C10.2517 20.0433 12.8776 18.7022 12.8776 15.5772C12.8776 13.6458 11.9618 12.2178 10.0694 11.6839ZM3.38108 7.28724H6.55382C7.77344 7.28724 8.87153 7.63013 8.87153 9.04506C8.87153 10.3515 8.01649 10.8767 6.8099 10.8767H3.38108V7.28724ZM6.99653 17.4305H3.38108V13.1944H7.06597C8.55469 13.1944 9.49653 13.815 9.49653 15.3905C9.49653 16.9444 8.3724 17.4305 6.99653 17.4305ZM22.5564 6.98343H16.3194V5.46867H22.5564V6.98343ZM25 14.6353C25 11.3411 23.0729 8.59367 19.579 8.59367C16.1849 8.59367 13.8802 11.1458 13.8802 14.4878C13.8802 17.9556 16.0634 20.3341 19.579 20.3341C22.2396 20.3341 23.9627 19.1362 24.7917 16.5885H22.092C21.8012 17.539 20.6033 18.0425 19.6745 18.0425C17.8819 18.0425 16.9401 16.9921 16.9401 15.2083H24.974C24.987 15.026 25 14.8306 25 14.6353ZM16.9444 13.2812C17.0443 11.8185 18.0165 10.9027 19.4835 10.9027C21.02 10.9027 21.7925 11.8055 21.9227 13.2812H16.9444Z" fill="white"/>
</g>
<defs>
<clipPath id="clip0_431_90">
<rect width="25" height="25" fill="white"/>
</clipPath>
</defs>
</svg>
