<svg width="933" height="752" viewBox="0 0 933 752" fill="none" xmlns="http://www.w3.org/2000/svg">
<path d="M346.5 432.5C353.381 452.104 375.451 489.223 415.5 511.671M555.5 429.5C542.3 492.3 491.333 520.333 467.5 526.5H454C439.677 523.229 426.864 518.04 415.5 511.671M452 429.5C453.333 433.5 454.5 444.1 448.5 454.5M484.5 405.5C485.333 407.833 489.5 413.9 495.5 417.5M484.5 405.5C487.167 408.833 495.2 416.2 506 419M484.5 405.5C488.899 407.825 495.81 410.345 504 411.552M482 408.5C483 410 485.3 413.1 486.5 413.5M504 411.552C505.833 413.702 511.2 418.5 518 420.5M504 411.552C507.919 412.13 512.131 412.407 516.5 412.219M516.5 412.219C517 413.813 519.5 417.2 525.5 418M516.5 412.219C517.984 412.155 519.485 412.038 521 411.86M521 411.86C522.833 413.573 527.8 416.9 533 416.5M521 411.86C523.146 411.608 525.317 411.236 527.5 410.724M527.5 410.724C528.5 412.649 533.8 416 541 416M527.5 410.724C534.457 409.094 541.524 406.051 548.214 401M537.5 412.219C538.333 412.646 541.1 413.5 545.5 413.5M542 408.5C542.745 409.5 545.163 411.1 548.868 409.5M545.5 404C545.5 404.5 546.5 408 552.5 405.5M548.214 401C548.644 400.675 549.073 400.342 549.5 400C552.667 400.667 559.7 401.2 562.5 398M548.214 401C548.476 402 550.3 403.7 555.5 402.5M422 413C426.4 410.2 429.167 403.833 430 401C428.782 401.833 427.277 402.732 425.5 403.621M425.5 403.621C423.5 406.581 418.4 413 414 415M425.5 403.621C424.154 404.294 422.651 404.962 421 405.591M421 405.591C417.167 410.56 407.1 418.8 401.5 418M421 405.591C416.542 407.288 410.997 408.703 404.5 409.187M409 412C407.333 413.667 402.8 416.8 398 416M404.5 409.187C403 411.125 398.4 415 392 415M404.5 409.187C402.255 409.354 399.897 409.41 397.43 409.328M397.43 409.328C396.12 411.219 392.2 414.8 387 414M397.43 409.328C394.676 409.237 390.016 408.674 387 408.201M387 408.201C385.576 410.034 381.429 413.501 376.229 412.701M387 408.201C384.988 407.885 380.999 407.49 379 406.998M379 406.998C377.5 407 373.5 411.799 365.5 410M379 406.998C376.167 406.301 373.601 405.41 371 404.277M371 404.277C369.333 405.818 364.8 408.761 360 408.201M371 404.277C368.909 403.366 366.794 402.3 364.5 401.052M363 404.277C362.333 405.153 360.4 406.642 358 405.591M364.5 401.052C364.198 401.868 360.038 404.1 355 402.5M364.5 401.052C363.081 400.281 361.594 399.441 360 398.525M360 398.525C358.889 397.887 357.727 397.213 356.5 396.5C354.5 397.333 349.6 398.5 346 396.5M360 398.525C356.833 401.183 346.5 405.591 341.5 398.525M429.5 365L430 356C428.667 355.333 425.2 354.2 422 355C418 356 396.5 353.5 394 353C391.5 352.5 369.5 351 367.5 349.5C365.5 348 357 346 356.5 345.5M427 365.5C420.833 365.167 407.8 364.2 405 363C401.5 361.5 386.5 361 385.5 360.5C384.5 360 370 360.5 368.5 360C367 359.5 356.5 352.5 354.5 349M415.5 511.671C416.833 516.447 419.7 526.6 420.5 529C421.5 532 427.5 565.5 422 575M493 519C491.5 526.167 488.7 541.7 489.5 546.5C490.5 552.5 483.5 587.5 525 586M322 670.5C322.833 664 324 649.4 322 643C319.5 635 322 618.5 325 615C328 611.5 346.622 602.205 355.5 598C365 593.5 411.5 584.5 413 582M396 591C397 592 418 607.5 424.5 607.5C431 607.5 460.5 623 464.5 625.5C468.5 628 487.5 614.5 489.5 614.5C491.5 614.5 526.5 589 527 587.5C527.5 586 550 584.5 555 586C560 587.5 572 593 578.5 606.5C585 620 589 626.5 594.5 644M371.5 689.5C380 704 397.2 736.6 398 751M556.5 685.5C558.5 698.333 562.7 724.8 563.5 728C564.5 732 567 741 568 746M573.5 308.5C581 304 590.5 289 594.5 287C598.381 285.06 622.497 278.413 649.5 276.192M892.5 193C889.388 196.449 886.007 199.303 882.5 201.694M583.5 321C592.113 314.081 610.967 301.229 626.5 297.219M925 186.5C919.671 191.41 914.328 195.903 909 200.012M615.5 313C619.814 311.218 627.252 308.465 634.5 306.47M932.5 206.5C926.777 214.214 908.794 223.785 891 231.332M593 304C596.5 299.013 605.9 288.031 615.5 284M626.5 297.219C629.301 296.497 631.994 296.061 634.5 296C638.054 295.913 641.338 295.511 644.5 294.902M626.5 297.219C627.5 294.5 636.5 288.5 638.5 284C640.1 280.4 646.5 277.295 649.5 276.192M649.5 276.192C650.331 276.124 651.164 276.06 652 276C661.08 275.352 671.894 273.599 682.5 271.288M663 289.712C665 287.141 669.8 281.8 673 281C676.2 280.2 680.667 274.192 682.5 271.288M663 289.712C656.543 291.684 650.761 293.697 644.5 294.902M663 289.712C668.707 287.969 674.942 286.258 682.5 285.167M682.5 271.288C692.787 269.046 702.879 266.279 711 263.484M634.5 306.47C640.133 304.919 645.652 303.825 649.5 304C654.271 304.217 658.948 303.493 663 302.563M634.5 306.47C637.167 304.344 642.9 299.055 644.5 294.902M663 302.563C668.291 301.349 672.518 299.783 674.5 299.5C676.374 299.232 684.983 298.248 693.5 297.391M663 302.563C666.833 301.74 674.8 299.055 676 294.902C677.2 290.75 680.833 286.682 682.5 285.167M682.5 285.167C685.158 284.783 687.98 284.475 691 284.27M691 284.27C693.07 284.129 695.233 284.037 697.5 284C701.921 283.929 706.461 283.316 711 282.308M691 284.27C695 283.084 703.4 279.77 705 276C707 271.288 706.5 265.113 711 263.484M711 263.484C720.326 260.274 727.055 257.028 728.5 254.5C730.561 250.893 740.191 244.63 750 239.611M711 282.308C708 284.05 701.8 288.27 701 291.218C700 294.902 696 297.136 693.5 297.391M711 282.308C716.056 281.186 721.111 279.572 726 277.671M693.5 297.391C700.891 296.648 708.212 296 711 296C713.865 296 724.939 293.378 736.6 289.712M750 239.611C759.225 234.892 768.607 231.273 772 232C772.721 232.155 773.921 232.203 775.5 232.159M750 239.611C747 243.074 740.9 251.5 740.5 257.5C740 265 728 276.913 726 277.671M726 277.671C736.462 273.602 746.162 268.213 753.48 263.484M726 277.671C762.4 263.008 774.167 241.22 775.5 232.159M736.6 289.712C741.067 286.27 750 278.746 750 276.192C750 273 752.46 266.468 753.48 263.484M736.6 289.712C743.614 287.507 750.841 284.925 756.621 282.308M753.48 263.484C756.893 261.279 759.787 259.217 762 257.5C764.815 254.283 771.476 249.051 781.5 245.231M756.621 282.308C761.354 280.165 765.118 278 767 276C773.971 268.593 796.13 257.769 808 255.108M756.621 282.308C759.58 277.705 766.4 267.8 770 265C774.5 261.5 782 248.462 781.5 245.231M781.5 245.231C786.763 243.225 792.953 241.609 800 240.877M808 255.108C809.751 254.715 811.279 254.5 812.5 254.5C820.022 254.5 833.498 247.291 843.5 244.785M808 255.108C813 250.803 822.9 241.525 822.5 238.847M822.5 238.847C816.398 239.806 810.7 240.324 805.5 240.5C803.613 240.564 801.779 240.692 800 240.877M822.5 238.847C826.192 238.267 830.032 237.526 834 236.601M843.5 244.785C846.131 244.126 848.522 243.792 850.5 244C853.77 244.344 863.144 241.844 874.5 237.785M843.5 244.785C847.547 241.19 855.927 233.1 857.071 229.5M857.071 229.5C862.745 227.327 868.57 224.776 874.5 221.8M857.071 229.5C849.035 232.578 841.302 234.9 834 236.601M874.5 237.785C876.333 235.19 880 229.6 880 228C880 226 884.5 216.454 886.5 215.261M874.5 237.785C879.715 235.921 885.348 233.729 891 231.332M886.5 215.261C888.988 213.796 891.489 212.253 894 210.629M886.5 215.261C882.462 217.64 878.457 219.815 874.5 221.8M891 231.332C894 226.895 900.6 217.47 903 215.261C906 212.5 909 201.524 909 200.012M909 200.012C903.979 203.884 898.971 207.415 894 210.629M899.5 183C899.462 191.086 898.31 207.932 894 210.629M882.5 201.694C881.833 207.434 879.3 219.493 874.5 221.8M882.5 201.694C872.217 208.705 860.85 211.731 852 214.075M852 214.075C845.927 215.683 841.039 216.969 838.5 219C835.382 221.495 824.571 224.421 812.5 226.882M852 214.075C849.167 215.716 843.5 220.3 843.5 225.5C843.5 230.7 837.167 235.067 834 236.601M812.5 226.882C809.833 231.673 803.6 241.179 800 240.877M812.5 226.882C798.531 229.73 782.874 231.953 775.5 232.159M27.5 1C29.5708 5.65934 32.5999 12.6619 35.399 19.5M63 87.5C57.5 79.5 43.5 46.5 42.5 39.5C42.055 36.385 38.9078 28.0718 35.399 19.5M63 87.5C64.8333 92.6667 68.3 103.9 67.5 107.5C66.7 111.1 68.2365 118 69.1048 121M63 87.5C67.5421 94.1067 78.2221 110.261 88 117.659M183.5 181C187 187 216.5 231 224.5 233.5M183.5 181C181.876 178.215 171.743 169.938 161 161.567M183.5 181C184.167 184.5 185.9 192.6 187.5 197C189.5 202.5 187.099 211.5 193.049 214M224.5 233.5C232.5 236 256 255 272.5 257.5C275.831 258.005 279.754 258.836 284 259.968M224.5 233.5C228.475 237.5 236.231 247.9 235.462 257.5M333 286C322.625 273.63 300.784 264.444 284 259.968M108 154C92.4122 146.359 79.0665 133.113 69.1048 121M108 154C117.109 158.465 126.791 163.313 136 168.293M108 154C110 160.667 114.8 174.7 118 177.5C122 181 129.5 189.195 129.5 189.195M322.5 310C315.466 305.646 312.023 303.984 299.394 297.5M1 7C2.33333 8 5.7 12.7 8.5 23.5C9.84731 28.6968 11.6392 35.1531 13.4763 41.5M298 315.5C296.577 314.788 288.178 310.477 279.369 305.5M13.4763 41.5C16.4116 51.6408 19.4624 61.5022 21 65.5C21.9036 67.8493 24.4401 72.8114 27.5 78.6155M13.4763 41.5C13.4842 37.1667 14 27.5 16 23.5C18 19.5 16.8333 6.83333 16 1C18.6287 7.85737 23.0599 20.2165 25.5854 29.5M25.5854 29.5C26.7428 33.7545 27.5 37.363 27.5 39.5C27.5 43.1291 30.8724 52.5004 35.399 63.0609M25.5854 29.5V51.5C26.2236 57.577 27.5 71.5079 27.5 78.6155M27.5 78.6155C32.9061 88.8699 39.9457 101.753 42.5 107.5C45.5223 114.3 47.1173 121.386 58.5 134.795M35.399 19.5C35.399 25 35.399 37.8 35.399 45C35.399 54 34.3423 60.6217 35.399 63.0609M35.399 63.0609C37.9886 69.1022 40.9559 75.5328 43.8857 81.5M43.8857 81.5C47.8295 89.5326 51.7053 96.7257 54.5 101C57.8041 106.053 62.7702 113.298 69.1048 121M43.8857 81.5C45.7869 87.8333 49.1716 101.9 47.5 107.5C45.4105 114.5 54 129.727 58.5 134.795M58.5 134.795C62.1824 139.134 66.8892 144.134 73 150C80.5408 157.239 88.127 163.296 95.1413 168.293M69.1048 121C72.9032 127 81 140.5 83 146.5C85.5 154 91.2826 165.608 95.1413 168.293M88 117.659C90.0621 119.22 92.0842 120.39 94 121C99.8294 122.855 109.591 127.378 118 131.666M88 117.659C91.6667 123.273 99 136.9 99 146.5M118 131.666C125.459 135.47 131.855 139.09 133.5 140.5C135.376 142.108 148.595 151.9 161 161.567M118 131.666C121.333 136.111 128.3 146.8 129.5 154C130.7 161.2 134.333 166.528 136 168.293M136 168.293C140.486 170.719 144.86 173.176 149 175.636M161 161.567C160.189 167.711 160.209 181.5 166.783 187.5M166.783 187.5C170.066 190.063 172.855 192.575 175 195C178.88 199.386 185.55 206.334 193.049 214M166.783 187.5C161.815 183.622 155.715 179.626 149 175.636M193.049 214C197.947 219.006 203.199 224.318 208.259 229.422M95.1413 168.293C111.382 179.863 124.556 185.754 127 187.5C127.477 187.841 128.343 188.422 129.5 189.195M129.5 189.195C136.832 194.094 155.817 206.658 161 214C165.61 220.53 170.809 222.044 180 229.422M149 175.636C154.928 182.091 166.783 196.6 166.783 203C166.783 209.4 175.594 223.282 180 229.422M180 229.422C182.772 231.648 185.908 234.408 189.5 238C205 253.5 221 265.5 232 274.5C234.186 276.289 236.373 277.762 238.5 279.02M208.259 229.422C218.414 239.668 227.799 249.078 232 253.5C233.443 255.019 234.529 256.319 235.462 257.5M208.259 229.422C212.006 237.448 220 254.3 222 257.5C224.5 261.5 235.5 280.541 238.5 279.02M238.5 279.02C247.076 284.095 254.696 285.693 257.5 290.5C259.34 293.654 269.607 299.985 279.369 305.5M256.099 274.5C260.357 276.977 265.703 279.918 272.5 283.5C284.715 289.938 293.17 294.304 299.394 297.5M256.099 274.5C261.979 285.167 274.864 306.3 279.369 305.5M256.099 274.5C240.702 265.544 239.541 262.663 235.462 257.5M284 259.968C285.667 263.992 289.3 273.437 290.5 279.02C292 286 294.517 295 299.394 297.5M643.716 44.5C625.644 47 601 53.1 647 57.5C704.5 63 711.5 59.5 712 53.5C706 51.1 698.167 50.5265 695 50.5397M643.716 44.5C644.413 42.5785 645.371 40.9232 646.512 39.5M643.716 44.5C643.486 45.137 643.283 45.8032 643.113 46.5M695 50.5397C695.447 52.7482 695.484 55.0809 695 57.5C685.208 75.6853 663.919 77.2375 651.665 69M695 50.5397C694.895 50.0194 694.766 49.506 694.617 49M646.512 39.5C650.341 39.5 658.3 39.5 659.5 39.5M646.512 39.5C647.613 38.128 648.884 36.9715 650.257 36M643.113 46.5C653 47.5 655.5 46.5 656.5 46.5M643.113 46.5C642.808 47.7465 642.604 49.0907 642.517 50.5397M642.517 50.5397C642.46 51.4816 642.453 52.4677 642.5 53.5C642.505 53.6039 642.51 53.7075 642.517 53.8107M642.517 50.5397C644.678 51.3598 649.9 52.9 653.5 52.5M642.517 53.8107C645.178 54.0405 651.4 54.5 655 54.5M642.517 53.8107C642.638 55.7795 643.052 57.634 643.716 59.3597M643.716 59.3597C645.978 60.2398 651.7 61.9 656.5 61.5M643.716 59.3597C644.4 61.1351 645.348 62.7742 646.512 64.2609M646.512 64.2609C649.675 64.8479 656.7 65.6696 659.5 64.2609M646.512 64.2609C647.935 66.0776 649.682 67.667 651.665 69M651.665 69C654.276 69.3333 660.2 69.5 663 67.5M650.257 36C657.293 31.0206 666.993 30.8985 670 31.5C678.808 30.9546 691.463 38.3356 694.617 49M650.257 36C651.505 36.6667 655.1 37.8 659.5 37M694.617 49C694.078 50.0265 691.6 51.7715 686 50.5397M459.5 484C465.333 484.5 478.6 484.2 485 479M476.5 368C477 366.333 478 362.1 478 358.5C478 354.9 493 355 500.5 355.5C515.833 355.333 547.9 354.2 553.5 351C555.5 350.5 547 360 545.5 360C544 360 516.5 365 508 364.5C499.5 364 478.5 366 476.5 368ZM346 310C344.167 316.833 359.2 330.7 434 331.5C527.5 332.5 561 335 562.5 316C564 297 458 295.5 451 295C444 294.5 344 295 346 310ZM58.5 1C58.6667 6.66667 56.4 18.8 46 22C47.5 23.5 58.5 20 63 39.5C62.8333 34.1667 64.8 23.5 74 23.5C68.8333 22.3333 58.5 16.2 58.5 1ZM174 4.5C175.333 11.1667 175 25.5 163 29.5C168 28.6667 179 31.9 183 51.5C180.5 44.8333 178.7 30.3 191.5 25.5C187.333 26.8333 178 24.5 174 4.5ZM117 51C118 57.3992 116.8 71.628 104 77.3489C107.667 76.0659 115.6 78.1 118 96.5C116.667 90.1163 117.5 77.3489 131.5 77.3489C126.667 77.7326 117 73 117 51ZM166.783 103C167.022 109 165.4 121 157 121C159.855 121.364 165.809 124.632 166.783 134.795C166.189 129.697 166.8 119.8 174 121C172.355 121.667 168.609 119 166.783 103ZM198.5 67C198.833 72.5 197.3 83.4 188.5 83C191.5 81.8333 197.9 82.1 199.5 92.5C198.5 89.1667 198.3 82.4 205.5 82C202.5 82.1667 196.9 79.4 198.5 67ZM246.5 177C246.333 183.333 242.9 196.2 230.5 197C236.667 195.833 249 198.3 249 217.5C247.667 212.333 248.1 201 260.5 197C255.5 197.833 245.7 195 246.5 177ZM321.5 8C322 15.3333 320.1 30.5 308.5 32.5C312.5 32 320.7 33.9 321.5 45.5C320.833 40.6667 321.3 31 328.5 31C325.333 31 319.5 26.4 321.5 8ZM573.5 220.5C574.667 228.667 573.2 245.9 558 249.5C563.333 246.5 574.5 246.4 576.5 270C574.667 261.5 575 244.5 591 244.5C584.167 246.167 571.1 243.7 573.5 220.5ZM592.5 127.5C592.833 137.167 590.1 157.4 576.5 161C583.167 158.167 597.4 159 601 185C599.833 175.333 600.9 156 614.5 156C608 157 594.5 152.7 592.5 127.5ZM629.5 188.5C629.667 193.167 627.8 203.5 619 207.5C623.5 207 632.9 209.7 634.5 224.5C632.833 218 632 205 642 205C637.167 206.167 627.9 204.5 629.5 188.5ZM775.5 162.5C775.833 169.333 772.9 183.5 758.5 185.5C763.667 186.333 774.3 191.4 775.5 205C774.333 198.333 774.8 184.7 786 183.5C780.167 184.833 769.9 182.5 775.5 162.5ZM837 95C837.667 100.333 836 111.2 824 112C827.667 111 835.6 112.1 838 124.5C837.5 119.833 838.3 110.8 845.5 112C841.167 112.167 833.4 109 837 95ZM778.5 33C778.833 43.1667 775.7 63.4 760.5 63C765 61.6667 775.5 63.5 781.5 81.5C780.942 79.9065 778.5 57.5 795.5 58.5C797 59.5 773.5 66.5 778.5 33Z" stroke="#A00606"/>
</svg>
