<svg width="96" height="96" viewBox="0 0 96 96" fill="none" xmlns="http://www.w3.org/2000/svg">
<path d="M43.9997 3.85628C45.6751 0.604221 50.3248 0.604222 52.0003 3.85628L57.7868 15.0878C59.0172 17.4762 61.7932 18.626 64.3521 17.8073L76.3856 13.957C79.8699 12.8422 83.1577 16.13 82.0429 19.6143L78.1927 31.6479C77.3739 34.2068 78.5238 36.9827 80.9121 38.2132L92.1437 43.9997C95.3957 45.6751 95.3957 50.3248 92.1437 52.0003L80.9121 57.7868C78.5238 59.0172 77.3739 61.7932 78.1927 64.3521L82.0429 76.3856C83.1577 79.8699 79.8699 83.1577 76.3856 82.0429L64.3521 78.1927C61.7932 77.3739 59.0172 78.5238 57.7868 80.9121L52.0003 92.1437C50.3248 95.3957 45.6751 95.3957 43.9997 92.1437L38.2132 80.9121C36.9827 78.5238 34.2068 77.3739 31.6479 78.1927L19.6143 82.0429C16.13 83.1577 12.8422 79.8699 13.957 76.3856L17.8073 64.3521C18.626 61.7932 17.4762 59.0172 15.0878 57.7868L3.85628 52.0003C0.604221 50.3248 0.604222 45.6751 3.85628 43.9997L15.0878 38.2132C17.4762 36.9827 18.626 34.2068 17.8073 31.6479L13.957 19.6143C12.8422 16.13 16.13 12.8422 19.6143 13.957L31.6479 17.8073C34.2068 18.626 36.9827 17.4762 38.2132 15.0878L43.9997 3.85628ZM43.9997 12.8563C45.6751 9.60422 50.3248 9.60422 52.0003 12.8563L55.7203 20.0768C56.9508 22.4651 59.7267 23.615 62.2856 22.7962L70.0217 20.321C73.506 19.2062 76.7938 22.494 75.679 25.9783L73.2037 33.7143C72.385 36.2733 73.5348 39.0492 75.9232 40.2797L83.1437 43.9997C86.3957 45.6751 86.3957 50.3248 83.1437 52.0003L75.9232 55.7203C73.5348 56.9508 72.385 59.7267 73.2037 62.2856L75.679 70.0217C76.7938 73.506 73.506 76.7938 70.0217 75.679L62.2856 73.2037C59.7267 72.385 56.9508 73.5348 55.7203 75.9232L52.0003 83.1437C50.3248 86.3957 45.6751 86.3957 43.9997 83.1437L40.2797 75.9232C39.0492 73.5348 36.2733 72.385 33.7143 73.2037L25.9783 75.679C22.494 76.7938 19.2062 73.506 20.321 70.0217L22.7962 62.2856C23.615 59.7267 22.4651 56.9508 20.0768 55.7203L12.8563 52.0003C9.60422 50.3248 9.60422 45.6751 12.8563 43.9997L20.0768 40.2797C22.4651 39.0492 23.615 36.2733 22.7962 33.7143L20.321 25.9783C19.2062 22.494 22.494 19.2062 25.9783 20.321L33.7143 22.7962C36.2733 23.615 39.0492 22.4651 40.2797 20.0768L43.9997 12.8563ZM52.8892 12.3983C50.8415 8.42355 45.1585 8.42355 43.1107 12.3983L39.3907 19.6188C38.384 21.5729 36.1127 22.5137 34.0191 21.8438L26.283 19.3686C22.0245 18.006 18.006 22.0245 19.3686 26.283L21.8438 34.0191C22.5137 36.1127 21.5729 38.384 19.6188 39.3907L12.3983 43.1107C8.42355 45.1585 8.42355 50.8415 12.3983 52.8892L19.6188 56.6092C21.5729 57.616 22.5137 59.8872 21.8438 61.9809L19.3686 69.7169C18.006 73.9755 22.0245 77.994 26.283 76.6314L34.0191 74.1562C36.1127 73.4863 38.384 74.4271 39.3907 76.3812L43.1107 83.6017C45.1585 87.5764 50.8415 87.5764 52.8892 83.6017L56.6092 76.3812C57.616 74.4271 59.8872 73.4863 61.9809 74.1562L69.7169 76.6314C73.9755 77.994 77.994 73.9755 76.6314 69.7169L74.1562 61.9809C73.4863 59.8872 74.4271 57.616 76.3812 56.6092L83.6017 52.8892C87.5764 50.8415 87.5764 45.1585 83.6017 43.1107L76.3812 39.3907C74.4271 38.384 73.4863 36.1127 74.1562 34.0191L76.6314 26.283C77.994 22.0245 73.9755 18.006 69.7169 19.3686L61.9809 21.8438C59.8872 22.5137 57.616 21.5729 56.6092 19.6188L52.8892 12.3983Z" fill="white" stroke="#A00606"/>
</svg>
