<svg width="818" height="619" viewBox="0 0 818 619" fill="none" xmlns="http://www.w3.org/2000/svg">
<g clip-path="url(#clip0_523_246)">
<path d="M93.4531 410.461C96.7708 383.783 113.304 357.497 138.747 348.815C128.713 376.274 128.716 406.398 138.753 433.856C142.663 444.431 148.113 455.786 144.435 466.444C142.147 473.076 136.55 478.15 130.293 481.323C124.035 484.495 117.091 486.008 110.234 487.49L108.884 488.606C97.9983 464.025 90.1354 437.139 93.4531 410.461Z" fill="#274323"/>
<path d="M139 349.32C124.183 365.921 114.974 386.769 112.681 408.903C112.102 413.659 112.277 418.477 113.199 423.178C114.245 427.729 116.491 431.917 119.703 435.306C122.634 438.527 126.005 441.482 128.103 445.359C129.147 447.359 129.756 449.558 129.891 451.811C130.026 454.063 129.683 456.319 128.885 458.429C127.033 463.741 123.383 468.07 119.667 472.179C115.541 476.742 111.183 481.415 109.429 487.464C109.217 488.197 108.092 487.825 108.304 487.093C111.356 476.569 121.572 470.591 126.444 461.112C128.717 456.689 129.671 451.554 127.54 446.885C125.676 442.802 122.202 439.752 119.206 436.517C116.025 433.256 113.69 429.266 112.405 424.895C111.247 420.256 110.887 415.453 111.34 410.693C112.189 399.959 114.72 389.426 118.841 379.479C123.482 368.101 130.034 357.6 138.216 348.431C138.722 347.864 139.503 348.756 139 349.32V349.32Z" fill="white"/>
<path d="M113 401.733C109.338 400.844 106.112 398.682 103.898 395.634C101.683 392.586 100.623 388.85 100.909 385.094C100.969 384.334 102.153 384.392 102.093 385.153C101.82 388.651 102.807 392.131 104.876 394.965C106.944 397.799 109.957 399.8 113.371 400.607C114.113 400.784 113.737 401.908 113 401.733Z" fill="white"/>
<path d="M118.001 433.869C124.614 429.921 129.496 423.625 131.673 416.237C131.888 415.505 133.013 415.878 132.798 416.609C130.518 424.292 125.425 430.834 118.534 434.927C117.877 435.317 117.348 434.257 118.001 433.869V433.869Z" fill="white"/>
<path d="M124.581 369.223C125.926 369.862 127.409 370.157 128.896 370.082C130.383 370.006 131.828 369.563 133.102 368.791C133.753 368.393 134.282 369.454 133.634 369.849C132.224 370.695 130.627 371.183 128.984 371.27C127.341 371.357 125.702 371.041 124.21 370.348C124.063 370.295 123.943 370.188 123.873 370.049C123.803 369.91 123.789 369.749 123.833 369.6C123.883 369.451 123.989 369.328 124.129 369.258C124.27 369.187 124.432 369.175 124.581 369.223V369.223Z" fill="white"/>
<path d="M216.301 396.465C215.901 396.725 215.501 396.985 215.101 397.255C209.742 400.779 204.679 404.732 199.961 409.075C199.591 409.405 199.221 409.745 198.861 410.085C187.605 420.671 178.413 433.254 171.751 447.195C169.105 452.745 166.885 458.489 165.111 464.375C162.661 472.505 160.651 481.515 155.801 488.165C155.303 488.865 154.762 489.533 154.181 490.165H110.351C110.251 490.115 110.151 490.075 110.051 490.025L108.301 490.105C108.371 489.795 108.451 489.475 108.521 489.165C108.561 488.985 108.611 488.805 108.651 488.625C108.681 488.505 108.711 488.385 108.731 488.275C108.741 488.235 108.751 488.195 108.761 488.165C108.781 488.055 108.811 487.955 108.831 487.855C109.271 486.065 109.724 484.275 110.191 482.485C110.191 482.475 110.191 482.475 110.201 482.465C113.791 468.835 118.551 455.385 125.201 443.085C125.401 442.715 125.601 442.335 125.821 441.965C128.849 436.438 132.324 431.167 136.211 426.205C138.348 423.495 140.621 420.895 143.021 418.415C149.235 412.019 156.416 406.64 164.301 402.475C180.021 394.175 198.221 390.995 215.021 396.065C215.451 396.195 215.871 396.325 216.301 396.465Z" fill="#274323"/>
<path d="M216.202 397.022C194.377 401.357 174.472 412.458 159.315 428.75C155.989 432.199 153.229 436.151 151.134 440.46C149.229 444.723 148.501 449.419 149.025 454.059C149.426 458.396 150.339 462.785 149.679 467.143C149.308 469.369 148.471 471.491 147.223 473.371C145.974 475.251 144.342 476.845 142.434 478.05C137.758 481.176 132.238 482.435 126.796 483.479C120.755 484.637 114.461 485.745 109.419 489.519C108.808 489.976 108.134 489.002 108.744 488.545C117.517 481.979 129.273 483.357 138.87 478.722C143.348 476.559 147.202 473.034 148.311 468.023C149.281 463.641 148.344 459.114 147.899 454.727C147.322 450.208 147.86 445.616 149.466 441.353C151.335 436.951 153.939 432.9 157.166 429.372C164.307 421.313 172.669 414.427 181.949 408.966C192.504 402.675 204.059 398.235 216.111 395.84C216.857 395.692 216.943 396.875 216.202 397.022H216.202Z" fill="white"/>
<path d="M163.886 423.217C161.498 420.303 160.224 416.635 160.29 412.868C160.357 409.1 161.76 405.48 164.25 402.652C164.756 402.082 165.666 402.841 165.16 403.412C162.836 406.041 161.529 409.414 161.474 412.922C161.419 416.43 162.62 419.842 164.86 422.542C165.346 423.129 164.37 423.801 163.886 423.217H163.886Z" fill="white"/>
<path d="M148.532 451.887C156.189 452.716 163.877 450.628 170.063 446.04C170.676 445.585 171.349 446.56 170.738 447.014C164.291 451.777 156.286 453.933 148.32 453.053C147.561 452.969 147.776 451.803 148.532 451.887V451.887Z" fill="white"/>
<path d="M192.706 404.233C193.395 405.553 194.402 406.681 195.634 407.516C196.867 408.351 198.288 408.867 199.77 409.017C200.53 409.092 200.313 410.257 199.558 410.183C197.922 410.009 196.354 409.438 194.989 408.518C193.625 407.598 192.507 406.359 191.732 404.907C191.648 404.777 191.616 404.619 191.644 404.465C191.672 404.312 191.757 404.176 191.882 404.083C192.011 403.994 192.171 403.96 192.325 403.988C192.479 404.016 192.616 404.104 192.706 404.233V404.233Z" fill="white"/>
<path d="M446.945 587.276C448.231 576.937 454.639 566.749 464.499 563.385C460.611 574.027 460.611 585.701 464.502 596.342C466.017 600.441 468.129 604.842 466.704 608.972C465.683 611.526 463.721 613.59 461.223 614.738C458.744 615.864 456.131 616.667 453.449 617.128L452.926 617.561C448.707 608.035 445.66 597.615 446.945 587.276Z" fill="#274323"/>
<path d="M464.597 563.58C458.855 570.014 455.286 578.094 454.397 586.672C454.173 588.515 454.241 590.382 454.598 592.204C455.004 593.968 455.874 595.591 457.119 596.905C458.357 598.067 459.451 599.375 460.374 600.8C460.779 601.576 461.015 602.428 461.067 603.301C461.119 604.174 460.986 605.048 460.677 605.866C459.855 607.864 458.641 609.676 457.105 611.195C455.506 612.963 453.817 614.774 453.137 617.119C453.055 617.403 452.619 617.258 452.701 616.975C453.884 612.896 457.843 610.579 459.731 606.906C460.218 606.08 460.509 605.154 460.583 604.198C460.656 603.242 460.51 602.283 460.156 601.392C459.3 599.89 458.209 598.533 456.926 597.374C455.693 596.11 454.788 594.564 454.29 592.87C453.842 591.072 453.702 589.21 453.878 587.366C454.207 583.206 455.188 579.124 456.785 575.269C458.583 570.859 461.123 566.789 464.293 563.236C464.49 563.016 464.792 563.362 464.597 563.58H464.597Z" fill="white"/>
<path d="M454.521 583.893C453.102 583.548 451.851 582.711 450.993 581.53C450.135 580.348 449.724 578.901 449.835 577.445C449.858 577.15 450.317 577.173 450.294 577.467C450.188 578.823 450.571 580.172 451.372 581.27C452.174 582.368 453.341 583.144 454.665 583.457C454.952 583.525 454.806 583.961 454.521 583.893H454.521Z" fill="white"/>
<path d="M456.459 596.348C459.022 594.817 460.914 592.377 461.758 589.514C461.841 589.231 462.277 589.375 462.194 589.658C461.31 592.636 459.336 595.171 456.666 596.758C456.411 596.909 456.206 596.498 456.459 596.348V596.348Z" fill="white"/>
<path d="M459.009 571.294C459.53 571.542 460.105 571.656 460.681 571.627C461.258 571.597 461.818 571.426 462.311 571.126C462.564 570.972 462.769 571.383 462.518 571.536C461.971 571.864 461.352 572.054 460.716 572.087C460.079 572.121 459.444 571.998 458.865 571.73C458.809 571.709 458.762 571.668 458.735 571.614C458.708 571.56 458.702 571.498 458.719 571.44C458.739 571.382 458.78 571.335 458.834 571.307C458.888 571.28 458.951 571.275 459.009 571.294L459.009 571.294Z" fill="white"/>
<path d="M494.555 581.852C494.4 581.953 494.245 582.053 494.09 582.158C492.014 583.523 490.051 585.055 488.223 586.739C488.079 586.867 487.936 586.998 487.796 587.13C483.434 591.233 479.872 596.109 477.29 601.512C476.265 603.663 475.404 605.889 474.716 608.17C473.767 611.321 472.988 614.813 471.108 617.39C470.915 617.661 470.706 617.92 470.481 618.165H453.494C453.455 618.146 453.417 618.131 453.378 618.111L452.7 618.142C452.727 618.022 452.758 617.898 452.785 617.778C452.8 617.708 452.82 617.638 452.835 617.569C452.847 617.522 452.859 617.476 452.866 617.433C452.87 617.417 452.874 617.402 452.878 617.39C452.886 617.348 452.897 617.309 452.905 617.27C453.076 616.576 453.251 615.883 453.432 615.189L453.436 615.181C454.763 609.882 456.715 604.759 459.249 599.919C459.327 599.776 459.404 599.629 459.489 599.485C460.663 597.343 462.01 595.3 463.516 593.378C464.344 592.327 465.225 591.32 466.155 590.359C468.564 587.88 471.347 585.795 474.402 584.181C480.495 580.964 487.548 579.732 494.059 581.697C494.226 581.747 494.389 581.798 494.555 581.852Z" fill="#274323"/>
<path d="M494.517 582.067C486.059 583.747 478.344 588.05 472.47 594.364C471.182 595.7 470.112 597.232 469.3 598.902C468.562 600.554 468.279 602.374 468.482 604.172C468.772 605.846 468.857 607.549 468.736 609.243C468.592 610.106 468.268 610.928 467.784 611.657C467.3 612.385 466.668 613.003 465.928 613.47C464.069 614.57 462.008 615.286 459.868 615.574C457.526 616.023 455.087 616.452 453.133 617.915C452.896 618.092 452.635 617.714 452.872 617.537C456.271 614.993 460.828 615.527 464.547 613.731C465.433 613.364 466.223 612.8 466.857 612.081C467.491 611.363 467.952 610.508 468.206 609.584C468.427 607.869 468.373 606.129 468.046 604.431C467.822 602.68 468.031 600.9 468.654 599.248C469.378 597.542 470.387 595.972 471.638 594.605C474.405 591.481 477.646 588.813 481.242 586.696C485.333 584.258 489.811 582.538 494.482 581.609C494.771 581.552 494.804 582.01 494.517 582.067H494.517Z" fill="white"/>
<path d="M474.242 592.219C473.317 591.09 472.823 589.668 472.848 588.208C472.874 586.749 473.418 585.345 474.383 584.249C474.579 584.028 474.932 584.323 474.736 584.544C473.835 585.563 473.329 586.87 473.307 588.229C473.286 589.589 473.751 590.911 474.62 591.958C474.808 592.185 474.429 592.446 474.242 592.219Z" fill="white"/>
<path d="M468.291 603.331C471.259 603.652 474.238 602.843 476.636 601.065C476.873 600.888 477.134 601.266 476.897 601.442C474.399 603.288 471.297 604.124 468.209 603.783C467.915 603.75 467.999 603.298 468.291 603.331H468.291Z" fill="white"/>
<path d="M485.411 584.862C485.678 585.373 486.068 585.811 486.546 586.134C487.024 586.458 487.575 586.658 488.149 586.716C488.443 586.745 488.359 587.197 488.067 587.168C487.433 587.101 486.825 586.879 486.296 586.523C485.767 586.166 485.334 585.686 485.034 585.123C485.001 585.073 484.989 585.011 485 584.952C485.01 584.893 485.043 584.84 485.092 584.804C485.142 584.769 485.204 584.756 485.264 584.767C485.323 584.778 485.376 584.812 485.411 584.862V584.862Z" fill="white"/>
<path d="M738.788 367.655C733.689 326.65 708.276 286.248 669.169 272.903C684.592 315.109 684.588 361.41 669.16 403.614C663.15 419.869 654.774 437.323 660.426 453.705C663.943 463.898 672.547 471.697 682.164 476.574C691.782 481.45 702.455 483.775 712.996 486.052L715.07 487.768C731.802 449.986 743.888 408.661 738.788 367.655Z" fill="#274323"/>
<path d="M668.781 273.679C691.555 299.196 705.71 331.241 709.235 365.261C709.945 372.554 710.032 380.014 708.437 387.203C706.83 394.198 703.378 400.634 698.441 405.844C693.936 410.795 688.754 415.336 685.53 421.295C682.132 427.577 682.002 434.714 684.328 441.386C687.174 449.549 692.784 456.203 698.496 462.519C704.838 469.532 711.536 476.716 714.232 486.014C714.559 487.14 716.288 486.567 715.962 485.443C711.271 469.267 695.569 460.078 688.08 445.509C684.586 438.711 683.119 430.818 686.395 423.642C689.26 417.366 694.599 412.678 699.204 407.705C704.04 402.484 707.748 396.755 709.658 389.842C711.611 382.77 711.817 375.291 711.295 368.012C709.99 351.514 706.099 335.324 699.765 320.035C692.633 302.546 682.561 286.406 669.986 272.313C669.207 271.441 668.007 272.812 668.781 273.679L668.781 273.679Z" fill="white"/>
<path d="M708.744 354.24C714.372 352.874 719.331 349.551 722.735 344.867C726.139 340.182 727.767 334.44 727.328 328.665C727.236 327.497 725.416 327.586 725.509 328.756C725.927 334.132 724.41 339.481 721.231 343.837C718.053 348.193 713.421 351.269 708.173 352.511C707.033 352.782 707.611 354.509 708.744 354.24H708.744Z" fill="white"/>
<path d="M701.056 403.635C690.892 397.566 683.389 387.89 680.043 376.534C679.712 375.409 677.983 375.981 678.313 377.105C681.818 388.915 689.646 398.97 700.237 405.262C701.247 405.861 702.061 404.231 701.056 403.635V403.635Z" fill="white"/>
<path d="M690.943 304.271C688.876 305.254 686.597 305.707 684.311 305.591C682.025 305.475 679.804 304.793 677.847 303.607C676.845 302.995 676.032 304.626 677.028 305.233C679.196 306.534 681.65 307.284 684.175 307.418C686.701 307.552 689.22 307.065 691.514 306.001C691.739 305.919 691.924 305.754 692.031 305.54C692.139 305.327 692.161 305.08 692.093 304.851C692.017 304.622 691.853 304.433 691.637 304.324C691.422 304.216 691.172 304.197 690.943 304.271V304.271Z" fill="white"/>
<path d="M549.966 346.144C550.58 346.544 551.195 346.943 551.81 347.358C560.046 352.774 567.829 358.85 575.081 365.526C575.65 366.034 576.218 366.556 576.772 367.079C594.072 383.349 608.201 402.69 618.441 424.119C622.508 432.649 625.919 441.477 628.647 450.525C632.413 463.021 635.502 476.87 642.957 487.091C643.723 488.166 644.554 489.193 645.447 490.165H712.816C712.969 490.089 713.123 490.027 713.277 489.95L715.967 490.073C715.859 489.597 715.736 489.105 715.628 488.628C715.567 488.352 715.49 488.075 715.429 487.798C715.383 487.614 715.336 487.429 715.305 487.26C715.29 487.199 715.275 487.137 715.26 487.091C715.229 486.922 715.182 486.769 715.152 486.615C714.475 483.864 713.779 481.112 713.061 478.361C713.061 478.346 713.061 478.346 713.046 478.33C707.528 457.38 700.212 436.707 689.991 417.801C689.683 417.233 689.376 416.648 689.038 416.08C684.383 407.584 679.042 399.482 673.067 391.856C669.783 387.691 666.289 383.694 662.6 379.882C653.05 370.051 642.012 361.783 629.892 355.382C605.729 342.624 577.756 337.737 551.933 345.529C551.272 345.729 550.626 345.929 549.966 346.144Z" fill="#274323"/>
<path d="M550.117 346.999C583.664 353.662 614.259 370.726 637.556 395.767C642.515 401.162 647.075 407.066 650.13 413.766C653.058 420.319 654.177 427.536 653.372 434.669C652.755 441.334 651.352 448.08 652.366 454.779C653.435 461.84 657.627 467.617 663.502 471.543C670.689 476.348 679.174 478.283 687.538 479.887C696.824 481.669 706.498 483.371 714.248 489.172C715.187 489.875 716.222 488.377 715.285 487.675C701.801 477.583 683.731 479.701 668.98 472.577C662.097 469.252 656.174 463.833 654.469 456.131C652.978 449.396 654.419 442.438 655.102 435.695C655.819 428.615 655.33 421.808 652.693 415.138C649.996 408.316 645.657 402.221 640.858 396.722C629.883 384.336 617.029 373.752 602.766 365.358C586.542 355.688 568.782 348.864 550.257 345.183C549.11 344.956 548.978 346.773 550.117 346.999V346.999Z" fill="white"/>
<path d="M630.529 387.262C634.2 382.783 636.159 377.145 636.056 371.355C635.954 365.565 633.797 360 629.97 355.653C629.192 354.776 627.793 355.943 628.572 356.821C632.143 360.862 634.152 366.046 634.236 371.438C634.321 376.83 632.475 382.075 629.032 386.225C628.285 387.128 629.786 388.16 630.529 387.262L630.529 387.262Z" fill="white"/>
<path d="M654.13 431.33C642.361 432.604 630.544 429.395 621.035 422.343C620.094 421.644 619.058 423.142 619.998 423.84C629.907 431.16 642.211 434.475 654.456 433.122C655.623 432.993 655.291 431.201 654.13 431.33V431.33Z" fill="white"/>
<path d="M586.231 358.083C585.172 360.112 583.626 361.846 581.731 363.129C579.836 364.413 577.652 365.206 575.374 365.437C574.206 365.552 574.539 367.343 575.7 367.229C578.214 366.962 580.626 366.083 582.722 364.67C584.819 363.256 586.538 361.351 587.729 359.12C587.858 358.919 587.907 358.676 587.864 358.441C587.821 358.205 587.691 357.995 587.498 357.853C587.3 357.716 587.055 357.664 586.818 357.707C586.58 357.75 586.37 357.885 586.231 358.083V358.083Z" fill="white"/>
<path d="M372.505 454.932L358.971 480.56C352.3 481.182 302.581 486.448 288.254 505.117C286.355 507.453 285.107 510.249 284.637 513.223C284.167 516.196 284.491 519.241 285.577 522.049C287.887 528.662 293.968 533.539 303.653 536.555C311.801 539.092 322.056 540.165 333.258 540.165C369.585 540.164 415.798 528.868 431.868 519.547L432.409 519.232L424.108 499.004L479.014 475.831L466.257 453.057" stroke="#A00606"/>
<path d="M471.365 477.301L471.418 477.306L471.47 477.3L471.413 476.803C471.47 477.3 471.47 477.3 471.471 477.3L471.473 477.299L471.483 477.298L471.524 477.294C471.56 477.29 471.614 477.284 471.686 477.276C471.83 477.261 472.044 477.238 472.322 477.211C472.88 477.155 473.699 477.078 474.739 476.993C476.82 476.822 479.788 476.617 483.335 476.48C490.432 476.206 499.832 476.207 509.069 477.3C518.319 478.394 527.345 480.577 533.734 484.629C536.923 486.651 539.437 489.128 541.004 492.15C542.57 495.167 543.209 498.762 542.597 503.058C540.137 520.324 524.538 535.192 498.442 538.281C472.422 541.361 436.004 532.706 392.062 502.974L401.7 486.063C401.732 486.061 401.767 486.059 401.804 486.057C402.051 486.043 402.416 486.021 402.887 485.99C403.829 485.927 405.197 485.829 406.9 485.683C410.306 485.392 415.055 484.912 420.432 484.158C431.131 482.656 444.356 480.06 454.408 475.676L471.365 477.301Z" stroke="#A00606"/>
<path d="M334.464 413.719L334.474 413.68L334.478 413.639L333.98 413.594C334.478 413.639 334.478 413.639 334.478 413.639L334.478 413.637L334.478 413.63L334.481 413.601L334.492 413.485L334.533 413.033C334.57 412.636 334.624 412.05 334.693 411.297C334.833 409.79 335.037 407.612 335.291 404.927C335.801 399.558 336.515 392.163 337.333 384.061C338.97 367.854 341.024 348.832 342.695 337.532C344.35 326.334 348.779 321.394 352.691 319.219C354.659 318.125 356.525 317.714 357.897 317.576C358.583 317.507 359.144 317.506 359.53 317.523C359.723 317.531 359.872 317.543 359.971 317.553C360 317.556 360.024 317.559 360.044 317.561C360.737 317.899 361.327 318.417 361.752 319.063C362.19 319.729 362.433 320.504 362.455 321.301L363.371 354.084L360.083 416.74L335.692 490.123L335.639 490.283L335.693 490.442C336.512 492.851 336.627 495.444 336.027 497.917C335.427 500.391 334.135 502.642 332.303 504.408C330.471 506.175 328.174 507.383 325.681 507.893C323.188 508.403 320.601 508.193 318.222 507.288C315.844 506.382 313.772 504.819 312.249 502.78C310.726 500.741 309.815 498.311 309.621 495.773C309.428 493.235 309.96 490.695 311.157 488.449C312.353 486.203 314.164 484.343 316.377 483.088L316.562 482.983L316.615 482.778L334.464 413.719Z" fill="white" stroke="#A00606"/>
<path d="M493.832 413.592L493.837 413.633L493.848 413.672L513.617 482.206L513.676 482.409L513.863 482.509C516.111 483.702 517.973 485.51 519.231 487.722C520.49 489.934 521.093 492.458 520.971 495C520.848 497.542 520.005 499.997 518.539 502.078C517.074 504.158 515.046 505.779 512.694 506.75C510.342 507.722 507.762 508.004 505.255 507.564C502.749 507.124 500.419 505.98 498.539 504.265C496.658 502.55 495.304 500.336 494.635 497.881C493.966 495.425 494.009 492.83 494.76 490.398L494.809 490.238L494.752 490.08L468.323 417.406L463.288 354.866V322.071C463.288 321.273 463.51 320.492 463.929 319.813C464.335 319.156 464.911 318.622 465.594 318.265C465.614 318.262 465.638 318.258 465.667 318.255C465.765 318.242 465.914 318.226 466.107 318.212C466.493 318.185 467.053 318.17 467.741 318.22C469.117 318.319 470.993 318.678 472.991 319.717C476.962 321.782 481.527 326.597 483.494 337.744C485.479 348.992 488.063 367.95 490.152 384.105C491.196 392.181 492.116 399.553 492.775 404.906C493.105 407.582 493.369 409.754 493.551 411.257C493.642 412.008 493.712 412.592 493.759 412.988L493.814 413.439L493.827 413.554L493.831 413.583L493.832 413.59L493.832 413.592C493.832 413.592 493.832 413.592 494.328 413.533L493.832 413.592Z" fill="white" stroke="#A00606"/>
<path d="M372.154 459.053C372.057 459 371.971 458.953 371.898 458.913L383.814 407.112L383.84 407L383.814 406.888L375.987 372.888L375.967 372.802L375.919 372.727C368.785 361.755 366.635 352.661 366.257 346.333C366.068 343.168 366.322 340.689 366.621 339.009C366.77 338.169 366.931 337.528 367.053 337.1C367.114 336.886 367.165 336.726 367.201 336.621C367.218 336.568 367.232 336.529 367.241 336.504L367.251 336.477L367.253 336.472L367.253 336.472L367.253 336.471L367.253 336.471L367.305 336.338L367.278 336.197L361.053 303.731L383.476 288.667L436.666 289.354L463.783 299.496L459.699 333.369L459.69 333.442L459.703 333.515C461.75 345.192 459.597 355.619 456.926 363.136C455.591 366.894 454.128 369.919 453 372.003C452.436 373.045 451.956 373.851 451.618 374.395C451.449 374.667 451.316 374.874 451.225 375.012C451.18 375.081 451.145 375.132 451.122 375.166L451.097 375.204L451.091 375.213L451.089 375.215L451.089 375.215L451.089 375.215L451.022 375.312L451.005 375.428L447.005 402.928L446.987 403.055L447.032 403.176L465.733 453.006C444.21 470.611 420.743 472.081 402.601 469.124C393.489 467.64 385.727 465.039 380.244 462.81C377.503 461.695 375.332 460.674 373.849 459.932C373.107 459.561 372.537 459.26 372.154 459.053Z" stroke="#A00606"/>
<path d="M355.683 220.969C358.963 230.327 369.482 248.045 388.572 258.76M455.303 219.537C449.011 249.514 424.718 262.895 413.357 265.839H406.923C400.095 264.277 393.989 261.801 388.572 258.76M405.969 219.537C406.605 221.447 407.161 226.506 404.301 231.471M421.461 208.081C421.858 209.195 423.844 212.091 426.704 213.809M421.461 208.081C422.732 209.672 426.561 213.189 431.709 214.525M421.461 208.081C423.557 209.191 426.852 210.394 430.755 210.97M420.269 209.513C420.746 210.229 421.842 211.709 422.414 211.9M430.755 210.97C431.629 211.996 434.187 214.287 437.428 215.241M430.755 210.97C432.623 211.246 434.631 211.378 436.713 211.289M436.713 211.289C436.952 212.049 438.143 213.666 441.003 214.048M436.713 211.289C437.421 211.258 438.136 211.202 438.858 211.117M438.858 211.117C439.732 211.935 442.1 213.523 444.578 213.332M438.858 211.117C439.881 210.997 440.916 210.819 441.957 210.575M441.957 210.575C442.433 211.494 444.959 213.093 448.391 213.093M441.957 210.575C445.272 209.797 448.641 208.344 451.83 205.933M446.723 211.289C447.12 211.492 448.439 211.9 450.536 211.9M448.868 209.513C449.223 209.991 450.375 210.754 452.142 209.991M450.536 207.365C450.536 207.604 451.013 209.275 453.873 208.081M451.83 205.933C452.035 205.778 452.239 205.619 452.443 205.456C453.952 205.774 457.305 206.029 458.639 204.501M451.83 205.933C451.955 206.411 452.824 207.222 455.303 206.649M391.67 211.661C393.767 210.325 395.086 207.286 395.483 205.933C394.903 206.331 394.185 206.76 393.338 207.184M393.338 207.184C392.385 208.597 389.954 211.661 387.857 212.616M393.338 207.184C392.696 207.506 391.98 207.824 391.193 208.125M391.193 208.125C389.366 210.497 384.568 214.43 381.899 214.048M391.193 208.125C389.068 208.935 386.425 209.61 383.329 209.841M385.473 211.184C384.679 211.98 382.518 213.475 380.23 213.093M383.329 209.841C382.614 210.766 380.421 212.616 377.37 212.616M383.329 209.841C382.259 209.921 381.134 209.948 379.959 209.909M379.959 209.909C379.334 210.811 377.466 212.521 374.987 212.139M379.959 209.909C378.646 209.865 376.425 209.596 374.987 209.37M374.987 209.37C374.309 210.246 372.332 211.9 369.853 211.518M374.987 209.37C374.028 209.22 372.127 209.031 371.174 208.796M371.174 208.796C370.459 208.797 368.552 211.088 364.739 210.229M371.174 208.796C369.823 208.464 368.6 208.038 367.361 207.498M367.361 207.498C366.566 208.233 364.405 209.638 362.118 209.37M367.361 207.498C366.364 207.063 365.356 206.554 364.262 205.958M363.548 207.498C363.23 207.916 362.308 208.626 361.164 208.125M364.262 205.958C364.119 206.348 362.135 207.413 359.734 206.649M364.262 205.958C363.586 205.59 362.877 205.189 362.118 204.752M362.118 204.752C361.588 204.447 361.034 204.126 360.449 203.785C359.496 204.183 357.16 204.74 355.444 203.785M362.118 204.752C360.608 206.021 355.683 208.125 353.3 204.752M395.245 188.749L395.483 184.453C394.848 184.135 393.195 183.594 391.67 183.976C389.763 184.453 379.515 183.26 378.324 183.021C377.132 182.783 366.646 182.067 365.692 181.351C364.739 180.635 360.688 179.68 360.449 179.441M394.053 188.988C391.114 188.829 384.901 188.367 383.567 187.795C381.899 187.079 374.749 186.84 374.272 186.601C373.796 186.363 366.884 186.601 366.169 186.363C365.454 186.124 360.449 182.783 359.496 181.112M388.572 258.76C389.207 261.04 390.574 265.886 390.955 267.032C391.432 268.464 390.478 283.465 387.857 288M425.512 262.259C424.797 265.68 423.462 273.094 423.844 275.385C425.512 279.59 430.422 288.4 436.713 290M463.882 161.78C467.457 159.632 471.986 152.472 473.892 151.517C475.742 150.591 487.237 147.419 500.108 146.358M615.934 106.648C614.451 108.294 612.839 109.657 611.167 110.798M468.649 167.747C472.755 164.444 481.741 158.309 489.145 156.395M631.425 103.545C628.885 105.889 626.338 108.034 623.799 109.995M483.902 163.928C485.958 163.077 489.503 161.763 492.958 160.811M635 113.092C632.272 116.774 623.7 121.343 615.219 124.945M473.177 159.632C474.845 157.251 479.326 152.009 483.902 150.085M489.145 156.395C490.48 156.05 491.764 155.842 492.958 155.813C494.652 155.772 496.218 155.58 497.725 155.289M489.145 156.395C489.622 155.097 493.911 152.233 494.865 150.085C495.627 148.367 498.678 146.885 500.108 146.358M500.108 146.358C500.504 146.326 500.901 146.295 501.3 146.267C505.627 145.957 510.782 145.121 515.837 144.017M506.543 152.812C507.496 151.585 509.784 149.035 511.309 148.653C512.834 148.271 514.964 145.404 515.837 144.017M506.543 152.812C503.465 153.753 500.709 154.714 497.725 155.289M506.543 152.812C509.263 151.98 512.235 151.163 515.837 150.642M515.837 144.017C520.741 142.947 525.551 141.626 529.422 140.292M492.958 160.811C495.643 160.071 498.274 159.548 500.108 159.632C502.382 159.736 504.611 159.39 506.543 158.946M492.958 160.811C494.229 159.796 496.962 157.271 497.725 155.289M506.543 158.946C509.065 158.367 511.079 157.619 512.024 157.484C512.917 157.356 517.021 156.886 521.081 156.477M506.543 158.946C508.37 158.553 512.167 157.271 512.739 155.289C513.311 153.307 515.043 151.365 515.837 150.642M515.837 150.642C517.104 150.459 518.449 150.312 519.889 150.214M519.889 150.214C520.875 150.147 521.906 150.103 522.987 150.085C525.094 150.051 527.258 149.759 529.422 149.278M519.889 150.214C521.795 149.648 525.799 148.066 526.562 146.267C527.515 144.017 527.277 141.07 529.422 140.292M529.422 140.292C533.867 138.76 537.075 137.211 537.763 136.004C538.746 134.282 543.336 131.293 548.011 128.897M529.422 149.278C527.992 150.109 525.037 152.124 524.655 153.531C524.179 155.289 522.272 156.356 521.081 156.477M529.422 149.278C531.832 148.742 534.241 147.972 536.572 147.064M521.081 156.477C524.603 156.122 528.093 155.813 529.422 155.813C530.788 155.813 536.066 154.562 541.624 152.812M548.011 128.897C552.408 126.644 556.88 124.917 558.498 125.264C558.841 125.338 559.413 125.361 560.166 125.34M548.011 128.897C546.581 130.55 543.674 134.572 543.483 137.436C543.245 141.016 537.525 146.703 536.572 147.064M536.572 147.064C541.558 145.122 546.182 142.55 549.67 140.292M536.572 147.064C553.922 140.065 559.53 129.665 560.166 125.34M541.624 152.812C543.753 151.169 548.011 147.577 548.011 146.358C548.011 144.835 549.184 141.717 549.67 140.292M541.624 152.812C544.967 151.759 548.412 150.527 551.167 149.278M549.67 140.292C551.297 139.24 552.676 138.256 553.731 137.436C555.073 135.9 558.248 133.403 563.026 131.58M551.167 149.278C553.423 148.255 555.217 147.221 556.114 146.267C559.437 142.731 569.999 137.564 575.657 136.294M551.167 149.278C552.578 147.081 555.828 142.353 557.544 141.016C559.689 139.345 563.264 133.122 563.026 131.58M563.026 131.58C565.534 130.622 568.485 129.851 571.844 129.501M575.657 136.294C576.492 136.107 577.22 136.004 577.802 136.004C581.387 136.004 587.811 132.563 592.578 131.367M575.657 136.294C578.04 134.239 582.759 129.81 582.568 128.532M582.568 128.532C579.66 128.99 576.944 129.237 574.465 129.321C573.566 129.352 572.692 129.413 571.844 129.501M582.568 128.532C584.328 128.255 586.159 127.902 588.05 127.46M592.578 131.367C593.832 131.052 594.972 130.893 595.915 130.992C597.473 131.156 601.941 129.963 607.354 128.026M592.578 131.367C594.507 129.651 598.502 125.789 599.047 124.071M599.047 124.071C601.751 123.033 604.528 121.816 607.354 120.395M599.047 124.071C595.216 125.54 591.53 126.648 588.05 127.46M607.354 128.026C608.228 126.787 609.976 124.118 609.976 123.355C609.976 122.4 612.121 117.844 613.074 117.274M607.354 128.026C609.84 127.136 612.525 126.089 615.219 124.945M613.074 117.274C614.26 116.574 615.452 115.838 616.649 115.063M613.074 117.274C611.149 118.409 609.241 119.448 607.354 120.395M615.219 124.945C616.649 122.827 619.795 118.328 620.939 117.274C622.369 115.956 623.799 110.717 623.799 109.995M623.799 109.995C621.405 111.843 619.018 113.529 616.649 115.063M619.271 101.875C619.253 105.734 618.703 113.776 616.649 115.063M611.167 110.798C610.85 113.538 609.642 119.294 607.354 120.395M611.167 110.798C606.266 114.144 600.848 115.589 596.63 116.708M596.63 116.708C593.735 117.475 591.405 118.089 590.195 119.059C588.709 120.249 583.555 121.647 577.802 122.821M596.63 116.708C595.279 117.491 592.578 119.679 592.578 122.161C592.578 124.643 589.559 126.728 588.05 127.46M577.802 122.821C576.531 125.108 573.56 129.645 571.844 129.501M577.802 122.821C571.143 124.18 563.681 125.241 560.166 125.34M203.631 15C204.618 17.2241 206.062 20.5666 207.396 23.8307M220.552 56.2893C217.931 52.4707 211.258 36.7187 210.781 33.3773C210.569 31.8904 209.069 27.9223 207.396 23.8307M220.552 56.2893C221.426 58.7556 223.079 64.1176 222.697 65.836C222.316 67.5544 223.048 70.848 223.462 72.28M220.552 56.2893C222.717 59.4429 227.808 67.1541 232.469 70.6854M277.989 100.92C279.657 103.784 293.718 124.787 297.531 125.98M277.989 100.92C277.214 99.5908 272.385 95.6398 267.264 91.6438M277.989 100.92C278.306 102.591 279.133 106.457 279.895 108.557C280.849 111.183 279.704 115.479 282.54 116.672M297.531 125.98C301.345 127.173 312.546 136.243 320.411 137.436C321.999 137.677 323.868 138.074 325.892 138.614M297.531 125.98C299.426 127.889 303.123 132.854 302.756 137.436M349.248 151.04C344.303 145.135 333.892 140.751 325.892 138.614M242.002 88.032C234.572 84.3847 228.21 78.0618 223.462 72.28M242.002 88.032C246.343 90.1633 250.959 92.4773 255.348 94.8543M242.002 88.032C242.955 91.2142 245.243 97.9128 246.768 99.2493C248.675 100.92 252.25 104.832 252.25 104.832M344.243 162.496C340.891 160.418 339.249 159.624 333.23 156.529M191 17.864C191.636 18.3413 193.24 20.5848 194.575 25.74C195.217 28.2206 196.071 31.3024 196.947 34.332M332.565 165.121C331.887 164.782 327.884 162.724 323.685 160.348M196.947 34.332C198.346 39.1725 199.8 43.8797 200.533 45.788C200.964 46.9094 202.173 49.278 203.631 52.0485M196.947 34.332C196.951 32.2636 197.196 27.6493 198.15 25.74C199.103 23.8307 198.547 17.7844 198.15 15C199.403 18.2733 201.515 24.1727 202.719 28.604M202.719 28.604C203.27 30.6348 203.631 32.3573 203.631 33.3773C203.631 35.1096 205.239 39.5829 207.396 44.6237M202.719 28.604V39.1053C203.023 42.0061 203.631 48.6558 203.631 52.0485M203.631 52.0485C206.208 56.9432 209.564 63.0927 210.781 65.836C212.222 69.0819 212.982 72.4641 218.407 78.865M207.396 23.8307C207.396 26.456 207.396 32.5659 207.396 36.0027C207.396 40.2987 206.893 43.4594 207.396 44.6237M207.396 44.6237C208.631 47.5075 210.045 50.577 211.441 53.4253M211.441 53.4253C213.321 57.2596 215.169 60.6931 216.501 62.7333C218.076 65.1454 220.443 68.6033 223.462 72.28M211.441 53.4253C212.348 56.4484 213.961 63.1629 213.164 65.836C212.168 69.1773 216.262 76.4459 218.407 78.865M218.407 78.865C220.163 80.9357 222.406 83.3224 225.319 86.1227C228.913 89.5781 232.529 92.4691 235.873 94.8543M223.462 72.28C225.273 75.144 229.132 81.588 230.085 84.452C231.277 88.032 234.033 93.5728 235.873 94.8543M232.469 70.6854C233.452 71.4302 234.415 71.989 235.329 72.28C238.107 73.1654 242.76 75.3242 246.768 77.3713M232.469 70.6854C234.216 73.3649 237.712 79.8696 237.712 84.452M246.768 77.3713C250.324 79.1871 253.372 80.9149 254.156 81.588C255.05 82.3554 261.351 87.0296 267.264 91.6438M246.768 77.3713C248.357 79.4929 251.678 84.5952 252.25 88.032C252.822 91.4688 254.553 94.0122 255.348 94.8543M255.348 94.8543C257.486 96.0124 259.571 97.1854 261.544 98.3596M267.264 91.6438C266.877 94.5768 266.887 101.159 270.02 104.023M270.02 104.023C271.585 105.246 272.915 106.445 273.937 107.603C275.787 109.696 278.966 113.013 282.54 116.672M270.02 104.023C267.652 102.171 264.745 100.264 261.544 98.3596M282.54 116.672C284.875 119.061 287.378 121.597 289.79 124.034M235.873 94.8543C243.613 100.377 249.893 103.189 251.058 104.023C251.285 104.185 251.698 104.463 252.25 104.832M252.25 104.832C255.745 107.17 264.794 113.167 267.264 116.672C269.461 119.789 271.94 120.511 276.32 124.034M261.544 98.3596C264.37 101.441 270.02 108.366 270.02 111.421C270.02 114.476 274.22 121.102 276.32 124.034M276.32 124.034C277.642 125.096 279.136 126.413 280.849 128.128C288.237 135.527 295.863 141.255 301.106 145.551C302.148 146.405 303.19 147.108 304.205 147.708M289.79 124.034C294.631 128.924 299.104 133.416 301.106 135.527C301.794 136.252 302.312 136.872 302.756 137.436M289.79 124.034C291.576 127.865 295.386 135.909 296.34 137.436C297.531 139.345 302.775 148.434 304.205 147.708M304.205 147.708C308.292 150.131 311.924 150.893 313.261 153.188C314.138 154.693 319.032 157.716 323.685 160.348M312.593 145.551C314.623 146.733 317.171 148.137 320.411 149.847C326.233 152.92 330.263 155.004 333.23 156.529M312.593 145.551C315.396 150.642 321.537 160.73 323.685 160.348M312.593 145.551C305.254 141.276 304.701 139.9 302.756 137.436M325.892 138.614C326.687 140.535 328.418 145.043 328.99 147.708C329.705 151.04 330.905 155.336 333.23 156.529M497.351 35.764C488.737 36.9573 476.99 39.8691 498.916 41.9693C526.324 44.5947 529.66 42.924 529.899 40.06C527.039 38.9144 523.305 38.6406 521.796 38.647M497.351 35.764C497.683 34.8468 498.14 34.0567 498.684 33.3773M497.351 35.764C497.241 36.0681 497.145 36.3861 497.063 36.7187M521.796 38.647C522.009 39.7011 522.026 40.8146 521.796 41.9693C517.128 50.6498 506.981 51.3907 501.14 47.4587M521.796 38.647C521.745 38.3986 521.684 38.1535 521.613 37.912M498.684 33.3773C500.509 33.3773 504.302 33.3773 504.874 33.3773M498.684 33.3773C499.208 32.7224 499.814 32.1704 500.469 31.7067M497.063 36.7187C501.776 37.196 502.968 36.7187 503.444 36.7187M497.063 36.7187C496.918 37.3137 496.821 37.9553 496.779 38.647M496.779 38.647C496.752 39.0965 496.749 39.5672 496.771 40.06C496.774 40.1096 496.776 40.159 496.779 40.2083M496.779 38.647C497.809 39.0384 500.299 39.7736 502.014 39.5827M496.779 40.2083C498.048 40.318 501.014 40.5373 502.729 40.5373M496.779 40.2083C496.837 41.1481 497.034 42.0333 497.351 42.857M497.351 42.857C498.429 43.2771 501.157 44.0696 503.444 43.8787M497.351 42.857C497.677 43.7045 498.129 44.4869 498.684 45.1965M498.684 45.1965C500.191 45.4767 503.54 45.869 504.874 45.1965M498.684 45.1965C499.362 46.0637 500.194 46.8224 501.14 47.4587M501.14 47.4587C502.385 47.6178 505.208 47.6973 506.543 46.7427M500.469 31.7067C503.823 29.3298 508.446 29.2716 509.879 29.5587C514.078 29.2983 520.11 32.8215 521.613 37.912M500.469 31.7067C501.063 32.0249 502.777 32.5659 504.874 32.184M521.613 37.912C521.356 38.402 520.175 39.2349 517.506 38.647M409.544 245.552C412.325 245.791 418.648 245.647 421.699 243.165M417.647 190.181C417.886 189.386 418.362 187.365 418.362 185.647C418.362 183.928 425.512 183.976 429.087 184.215C436.396 184.135 451.68 183.594 454.349 182.067C455.303 181.828 451.251 186.363 450.536 186.363C449.821 186.363 436.713 188.749 432.662 188.511C428.61 188.272 418.601 189.227 417.647 190.181ZM355.444 162.496C354.571 165.758 361.736 172.377 397.39 172.759C441.957 173.236 457.924 174.429 458.639 165.36C459.354 156.291 408.829 155.575 405.493 155.336C402.156 155.097 354.491 155.336 355.444 162.496ZM218.407 15C218.487 17.7049 217.406 23.4965 212.449 25.024C213.164 25.74 218.407 24.0693 220.552 33.3773C220.473 30.8316 221.41 25.74 225.795 25.74C223.333 25.1831 218.407 22.2555 218.407 15ZM273.461 16.6707C274.096 19.8529 273.937 26.6947 268.217 28.604C270.601 28.2062 275.844 29.7496 277.75 39.1053C276.559 35.9231 275.701 28.9859 281.802 26.6947C279.816 27.3311 275.367 26.2173 273.461 16.6707ZM246.291 38.8667C246.768 41.9212 246.196 48.7131 240.095 51.4439C241.843 50.8315 245.624 51.8024 246.768 60.5853C246.133 57.5382 246.53 51.4439 253.203 51.4439C250.899 51.627 246.291 49.368 246.291 38.8667ZM270.02 63.688C270.134 66.552 269.361 72.28 265.357 72.28C266.718 72.4535 269.556 74.0135 270.02 78.865C269.737 76.4313 270.029 71.7072 273.461 72.28C272.677 72.5982 270.891 71.3253 270.02 63.688ZM285.138 46.504C285.297 49.1293 284.567 54.3323 280.372 54.1413C281.802 53.5844 284.852 53.7117 285.615 58.676C285.138 57.0849 285.043 53.8549 288.475 53.664C287.045 53.7436 284.376 52.4229 285.138 46.504ZM308.018 99.0107C307.938 102.034 306.302 108.175 300.391 108.557C303.331 108 309.209 109.178 309.209 118.343C308.574 115.876 308.78 110.467 314.691 108.557C312.308 108.955 307.636 107.603 308.018 99.0107ZM343.767 18.3413C344.005 21.8418 343.099 29.0813 337.57 30.036C339.477 29.7973 343.385 30.7043 343.767 36.2413C343.449 33.9342 343.671 29.32 347.103 29.32C345.594 29.32 342.813 27.1243 343.767 18.3413ZM463.882 119.775C464.439 123.673 463.739 131.899 456.494 133.617C459.036 132.185 464.359 132.138 465.312 143.403C464.439 139.345 464.597 131.231 472.224 131.231C468.967 132.026 462.738 130.849 463.882 119.775ZM472.939 75.3827C473.098 79.9969 471.795 89.6549 465.312 91.3733C468.49 90.0209 475.274 90.4187 476.99 102.829C476.434 98.2151 476.943 88.9867 483.425 88.9867C480.327 89.464 473.892 87.4115 472.939 75.3827ZM490.575 104.5C490.654 106.728 489.765 111.66 485.57 113.569C487.715 113.331 492.195 114.619 492.958 121.684C492.164 118.581 491.767 112.376 496.533 112.376C494.229 112.933 489.812 112.137 490.575 104.5ZM560.166 92.0893C560.325 95.3511 558.927 102.113 552.063 103.068C554.525 103.466 559.594 105.884 560.166 112.376C559.61 109.194 559.832 102.686 565.171 102.113C562.39 102.75 557.497 101.636 560.166 92.0893ZM589.48 59.8693C589.798 62.4151 589.003 67.6021 583.283 67.984C585.031 67.5067 588.813 68.0317 589.957 73.9507C589.718 71.7231 590.1 67.4112 593.531 67.984C591.466 68.0636 587.764 66.552 589.48 59.8693ZM561.596 30.2747C561.755 35.1276 560.261 44.7856 553.016 44.5947C555.161 43.9582 560.166 44.8333 563.026 53.4253C562.76 52.6647 561.596 41.9693 569.699 42.4467C570.414 42.924 559.213 46.2653 561.596 30.2747Z" stroke="#A00606"/>
<path d="M382.847 534.798L384.885 519.109C384.901 519.084 384.92 519.054 384.943 519.019C385.02 518.9 385.135 518.726 385.288 518.507C385.592 518.069 386.043 517.452 386.625 516.742C387.793 515.32 389.48 513.536 391.568 512.067C393.656 510.597 396.123 509.457 398.858 509.284C401.583 509.111 404.623 509.893 407.879 512.353C414.57 517.409 424.106 524.198 431.966 529.72C435.896 532.482 439.409 534.929 441.939 536.684C443.204 537.562 444.224 538.267 444.927 538.753C445.279 538.996 445.551 539.184 445.736 539.312L445.901 539.425C445.932 539.499 445.976 539.604 446.027 539.736C446.136 540.014 446.277 540.408 446.407 540.869C446.67 541.802 446.87 542.951 446.702 543.948C446.62 544.44 446.45 544.878 446.169 545.236C445.892 545.591 445.486 545.893 444.888 546.087C443.668 546.485 441.647 546.436 438.397 545.422C431.799 543.363 417.774 540.687 405.434 538.53C399.256 537.45 393.489 536.499 389.267 535.817C387.156 535.476 385.43 535.202 384.233 535.014C383.634 534.92 383.167 534.847 382.85 534.798L382.847 534.798ZM445.847 539.304C445.847 539.304 445.847 539.304 445.847 539.304V539.304Z" fill="white" stroke="#A00606"/>
<path d="M450.018 510.434C450.037 510.471 450.053 510.503 450.067 510.53L450.469 526.345L450.467 526.345C450.146 526.361 449.674 526.385 449.069 526.417C447.858 526.48 446.114 526.574 443.979 526.694C439.708 526.935 433.874 527.285 427.617 527.719C415.121 528.587 400.894 529.796 394.118 531.16C390.78 531.832 388.765 531.672 387.593 531.15C387.018 530.895 386.646 530.553 386.407 530.171C386.165 529.786 386.041 529.333 386.01 528.835C385.946 527.826 386.264 526.703 386.623 525.802C386.799 525.358 386.981 524.98 387.118 524.715C387.182 524.589 387.237 524.489 387.276 524.419L387.451 524.323C387.648 524.215 387.939 524.057 388.314 523.851C389.063 523.441 390.15 522.845 391.5 522.103C394.198 520.619 397.945 518.549 402.14 516.209C410.529 511.53 420.717 505.765 427.896 501.43C431.389 499.32 434.494 498.857 437.186 499.311C439.889 499.766 442.225 501.156 444.149 502.834C446.074 504.511 447.567 506.46 448.581 507.996C449.087 508.762 449.471 509.422 449.729 509.89C449.857 510.123 449.954 510.308 450.018 510.434Z" fill="white" stroke="#A00606"/>
</g>
<defs>
<clipPath id="clip0_523_246">
<rect width="818" height="618.165" fill="white"/>
</clipPath>
</defs>
</svg>
